# xmcd
# 
# Track frame offsets:
#     150
#     20490
#     46627
#     72246
# 
# Disc length: 1289
# 
# Revision: 0
# Processed by: cddbd v1.5.2PL0 Copyright (c) Steve Scherf et al.
# Submitted via: fre:ac v1.0.17
# 
DISCID=29050704
DTITLE=Giant Rooks - The Times Are Bursting The Lines
DYEAR=2016
DGENRE=
TTITLE0=Itchy Feet
TTITLE1=Småland
TTITLE2=Rituals
TTITLE3=Chapels (Live Session)
EXTD=
EXTT0=
EXTT1=
EXTT2=
EXTT3=
PLAYORDER=
